<?xml version="1.0" standalone="no"?>
<!DOCTYPE svg PUBLIC "-//W3C//DTD SVG 20010904//EN"
 "http://www.w3.org/TR/2001/REC-SVG-20010904/DTD/svg10.dtd">
<svg version="1.0" xmlns="http://www.w3.org/2000/svg"
 width="1200.000000pt" height="704.000000pt" viewBox="0 0 1200.000000 704.000000"
 preserveAspectRatio="xMidYMid meet">

<g transform="translate(0.000000,704.000000) scale(0.100000,-0.100000)"
fill="#000000" stroke="none">
<path d="M3753 6040 c-4 -14 -11 -19 -24 -15 -11 3 -28 8 -39 11 -26 7 -25 -4
1 -33 20 -21 21 -23 5 -29 -10 -4 -35 -2 -55 5 -57 16 -69 14 -85 -18 -11 -20
-25 -31 -51 -35 -19 -4 -35 -11 -35 -17 0 -6 -4 -7 -10 -4 -5 3 -10 2 -10 -3
0 -5 13 -15 29 -22 22 -9 28 -17 25 -34 -4 -23 27 -66 61 -83 11 -6 46 -14 78
-17 31 -4 57 -9 57 -10 0 -2 -24 -55 -54 -117 -32 -70 -82 -153 -128 -214
-115 -154 -199 -318 -212 -414 -2 -14 -6 -33 -9 -41 -4 -8 -10 -42 -14 -75 -7
-48 -12 -59 -25 -57 -19 3 -42 -33 -32 -50 4 -7 3 -8 -4 -4 -11 6 -16 -6 -13
-26 0 -5 -3 -8 -9 -8 -5 0 -6 -7 -3 -17 4 -10 2 -14 -4 -10 -5 3 -16 -4 -22
-17 -14 -25 -70 -56 -101 -56 -11 0 -20 -5 -20 -11 0 -6 -6 -9 -14 -6 -8 3
-22 -1 -33 -8 -10 -8 -36 -15 -58 -15 -22 0 -67 -7 -100 -16 -82 -21 -109 -22
-111 -4 0 8 -2 28 -2 44 -1 19 -15 41 -39 64 -21 20 -32 32 -25 28 15 -9 8 54
-15 128 -30 93 -126 241 -151 231 -7 -3 -11 -1 -8 4 3 5 -4 16 -17 24 -12 8
-44 36 -72 61 -27 26 -75 63 -105 84 -30 20 -57 40 -60 44 -4 5 -47 19 -70 23
-3 0 -21 6 -40 12 -64 21 -179 34 -200 23 -11 -6 -30 -8 -43 -5 -29 8 -167
-10 -256 -32 -50 -13 -60 -18 -45 -24 15 -6 12 -8 -11 -7 -33 2 -111 -37 -164
-82 -37 -31 -21 -35 24 -6 26 17 44 24 73 25 7 1 10 5 7 11 -3 6 1 7 9 4 8 -3
28 0 43 8 15 7 57 15 92 16 35 2 75 8 89 13 15 6 23 7 20 3 -4 -4 9 -16 30
-26 56 -30 58 -36 16 -43 -39 -7 -222 -57 -281 -78 -18 -6 -29 -15 -26 -21 4
-5 0 -7 -9 -4 -8 4 -26 -3 -39 -15 -14 -12 -31 -23 -39 -25 -22 -5 -68 -64
-63 -81 4 -13 3 -13 -5 -2 -8 11 -12 10 -23 -8 -8 -11 -18 -21 -23 -21 -7 0
-46 -38 -46 -46 0 -1 34 15 76 37 81 42 101 47 101 25 0 -8 -6 -12 -15 -8 -10
3 -13 1 -8 -6 4 -7 1 -12 -8 -12 -19 0 -98 -98 -90 -111 3 -5 1 -9 -3 -9 -13
0 -45 -59 -39 -69 4 -5 1 -11 -5 -13 -6 -2 -14 -23 -19 -47 l-8 -43 42 40 c22
21 56 48 74 58 17 10 32 21 32 24 0 3 10 7 22 7 13 1 24 7 26 13 2 5 7 8 10 6
4 -2 27 0 52 5 25 6 52 10 60 10 8 0 37 5 63 10 36 7 56 5 83 -6 20 -8 40 -12
45 -9 5 3 9 1 9 -5 0 -8 28 -18 67 -24 14 -2 47 -37 41 -43 -3 -3 -23 -7 -44
-10 -20 -3 -54 -14 -75 -26 -30 -17 -46 -19 -81 -14 -24 4 -51 8 -60 9 -9 1
-14 5 -12 9 3 4 1 8 -4 8 -4 0 -18 9 -30 20 -26 24 -28 11 -6 -31 9 -19 21
-29 29 -25 8 3 17 0 21 -6 4 -7 3 -8 -4 -4 -8 5 -10 -2 -6 -22 6 -28 4 -30
-29 -34 -20 -2 -34 -1 -32 2 2 3 -9 11 -26 17 -39 15 -45 1 -14 -33 30 -32 30
-38 7 -72 -30 -42 -42 -88 -29 -101 9 -9 8 -11 -5 -6 -10 4 -18 3 -19 -1 -1
-18 -8 -40 -23 -83 -24 -65 -20 -69 19 -20 75 97 229 194 328 206 42 6 49 -7
12 -27 -13 -7 -22 -17 -19 -22 3 -4 -1 -8 -9 -8 -8 0 -20 -7 -28 -16 -8 -10
-22 -14 -38 -11 l-25 5 22 -17 22 -16 -20 -30 c-11 -16 -18 -39 -15 -50 3 -11
2 -14 -1 -7 -3 6 -9 10 -13 7 -4 -2 -25 0 -46 6 -80 22 -83 21 -35 -24 45 -43
54 -64 34 -82 -7 -5 -15 -23 -18 -40 l-7 -30 18 25 c10 14 17 28 15 33 -1 4 1
6 5 5 5 -1 18 3 30 10 16 9 29 9 53 1 17 -6 45 -9 63 -5 23 4 28 3 17 -4 -13
-8 -12 -10 3 -10 9 0 17 -4 17 -10 0 -17 -42 -53 -49 -43 -8 13 -129 -1 -144
-16 -17 -17 31 -29 96 -24 31 3 57 2 57 -1 0 -4 -9 -25 -20 -46 -11 -22 -17
-40 -13 -40 5 0 3 -4 -3 -8 -22 -15 -44 -84 -50 -154 -6 -67 3 -254 11 -246 2
2 6 21 9 43 5 47 33 131 54 163 8 12 11 22 7 22 -3 0 17 25 47 56 29 31 52 60
50 65 -1 5 4 8 10 7 7 -2 12 3 10 10 -1 6 2 11 7 10 17 -5 102 75 96 90 -4 12
-3 12 9 3 8 -7 17 -8 20 -3 8 13 46 22 46 11 0 -5 -16 -23 -35 -41 -20 -17
-44 -46 -54 -62 -27 -45 -83 -214 -79 -239 3 -20 4 -20 20 5 10 15 19 33 20
40 2 7 5 15 8 18 22 20 49 64 44 71 -3 5 -1 8 4 7 13 -4 102 52 102 64 0 5 6
8 13 7 25 -3 38 1 32 11 -3 6 1 7 9 4 23 -9 20 -16 -19 -54 -40 -38 -71 -112
-91 -215 -17 -87 -17 -98 -1 -89 9 6 9 4 1 -7 -14 -17 -30 -88 -18 -76 17 16
42 98 37 120 -3 16 -2 18 5 8 12 -17 27 3 16 22 -4 6 -4 9 0 5 5 -4 22 19 38
50 17 31 34 59 39 60 5 2 9 8 9 14 0 13 31 37 48 38 9 0 10 -5 4 -17 -22 -42
-38 -236 -23 -273 9 -24 10 -23 10 10 1 59 45 209 58 197 3 -3 5 -64 4 -134 0
-70 3 -141 7 -158 8 -27 10 -23 17 35 9 81 40 203 51 207 5 2 8 -66 6 -152 -2
-87 1 -155 6 -155 7 0 17 105 26 283 0 15 6 26 11 24 11 -4 11 -4 20 -120 4
-42 10 -75 15 -72 4 3 11 31 14 62 13 106 18 123 40 135 11 6 18 7 14 3 -4 -4
7 -21 23 -39 28 -28 30 -35 24 -79 -4 -31 -2 -47 4 -43 5 4 12 -3 16 -14 4
-13 15 -20 30 -20 13 0 27 -4 30 -10 4 -6 -7 -10 -27 -10 -22 0 -28 -3 -20 -9
11 -7 11 -9 -2 -14 -9 -4 -15 -1 -13 6 2 14 -47 11 -77 -5 -35 -19 7 -28 91
-20 43 4 90 5 104 1 20 -5 15 -9 -36 -24 -33 -9 -65 -21 -71 -26 -6 -5 -14 -6
-17 -2 -4 3 -7 1 -7 -6 0 -8 12 -12 33 -10 48 5 246 -12 252 -21 2 -4 -23 -13
-58 -20 -34 -6 -72 -18 -85 -26 -24 -16 -21 -36 6 -33 10 1 24 -1 32 -4 8 -3
63 -9 123 -12 59 -4 110 -11 113 -16 3 -5 17 -9 32 -9 38 0 53 -12 36 -28 -7
-7 -16 -12 -19 -12 -25 1 -25 -3 -1 -11 19 -5 34 -4 43 2 13 12 44 5 42 -8 -2
-15 13 -53 20 -48 16 9 -3 -61 -21 -81 l-19 -22 34 -6 c35 -7 44 -19 63 -86 4
-14 10 -27 14 -30 4 -3 4 -40 1 -82 -4 -42 -4 -75 0 -73 3 3 4 -18 1 -45 -3
-34 0 -55 9 -67 12 -15 12 -16 -1 -8 -8 6 -31 10 -50 11 -75 4 -2243 4 -2246
1 -2 -2 -30 0 -61 5 -32 4 -179 6 -328 3 -185 -4 -265 -2 -255 5 9 6 10 10 3
10 -6 0 -15 -5 -18 -10 -4 -6 -21 -10 -38 -9 -18 2 -69 2 -114 1 l-83 -2 0
-147 0 -146 1208 7 c664 4 1378 7 1586 7 275 0 384 3 395 11 13 10 14 10 4 -2
-9 -10 -13 -62 -13 -186 0 -94 -3 -192 -6 -218 l-7 -46 -1583 0 -1584 0 0
-145 0 -145 1582 -2 1583 -3 3 -218 2 -218 -22 1 c-13 1 -726 2 -1585 1
l-1563 -1 0 -145 0 -145 1585 0 1585 0 -2 -230 -3 -230 -1582 0 -1583 0 0
-230 0 -230 6000 0 6000 0 0 244 0 245 -30 -4 c-29 -4 -30 -3 -31 38 -1 41 -3
52 -9 72 -2 6 -6 -17 -9 -50 l-6 -60 -47 0 c-27 -1 -48 4 -49 10 0 5 0 29 1
51 1 23 -3 45 -9 49 -7 3 -11 -3 -12 -17 -1 -13 -2 -27 -4 -33 -1 -5 -3 -22
-3 -36 l-2 -25 -107 0 -108 1 -3 53 c-4 67 -20 67 -24 0 -3 -47 -5 -52 -25
-51 -13 0 -36 1 -52 2 -25 1 -29 5 -26 26 1 14 -2 28 -6 31 -5 3 -9 -2 -9 -10
0 -23 -13 -26 -61 -12 -36 11 -45 18 -47 40 -4 31 -22 35 -22 5 0 -15 -4 -19
-16 -15 -9 3 -24 6 -35 6 -10 0 -27 8 -37 17 -10 11 -33 18 -57 19 -22 0 -93
17 -157 38 l-118 38 0 141 0 142 60 -3 c45 -3 60 0 60 10 -1 7 -22 54 -48 103
l-48 90 -99 5 -100 5 4 55 c1 30 7 56 12 58 5 2 9 24 9 48 l0 44 -95 0 -95 0
0 -45 c0 -25 5 -45 10 -45 7 0 10 -21 8 -55 l-3 -56 -384 0 c-212 0 -388 4
-392 8 -10 10 -13 448 -4 464 4 6 18 9 31 6 14 -2 26 -1 29 3 5 8 -64 65 -79
65 -6 0 -11 5 -11 11 0 13 -76 94 -88 94 -5 0 -5 -5 -1 -12 4 -7 3 -8 -5 -4
-6 4 -9 12 -5 17 8 13 -33 52 -46 44 -6 -3 -10 -1 -10 4 0 17 -33 50 -43 44
-6 -3 -7 -2 -4 4 7 10 -43 59 -55 55 -5 -1 -8 3 -8 9 0 6 -7 18 -16 27 -15 15
-19 13 -49 -21 -18 -20 -37 -37 -42 -37 -5 0 -21 -12 -35 -27 -13 -16 -49 -50
-79 -77 -30 -28 -53 -54 -51 -58 1 -4 -2 -7 -6 -6 -13 4 -102 -79 -94 -87 4
-5 2 -5 -4 -2 -6 3 -23 -6 -37 -21 l-27 -28 33 4 32 4 -3 -464 c-2 -255 -6
-465 -8 -467 -6 -6 -203 79 -210 91 -3 5 -15 6 -26 2 -13 -4 -18 -2 -14 5 4 6
-5 13 -21 17 -15 4 -41 15 -57 25 -16 10 -33 16 -38 13 -4 -3 -8 51 -8 119 0
115 -2 125 -22 143 -12 10 -18 13 -13 5 6 -10 4 -12 -4 -7 -7 5 -10 13 -8 20
2 6 -15 33 -39 60 -39 44 -45 48 -61 36 -15 -12 -16 -12 -5 0 15 18 16 34 0
24 -6 -4 -8 -3 -4 4 3 6 1 16 -6 24 -7 7 -38 42 -68 78 -91 109 -148 163 -165
156 -9 -3 -14 -2 -11 2 2 4 -10 14 -27 21 -18 8 -51 22 -75 33 -23 10 -48 16
-54 12 -6 -4 -8 -3 -5 3 6 10 -43 37 -59 33 -4 -1 -10 4 -15 12 -11 17 -94 16
-279 -6 -80 -10 -175 -20 -212 -23 -38 -3 -68 -10 -68 -15 0 -5 -8 -7 -17 -4
-10 3 -56 1 -103 -5 -47 -6 -107 -13 -135 -15 -27 -2 -70 -7 -95 -10 -52 -8
-57 -9 -207 -25 -79 -8 -118 -17 -131 -29 -10 -9 -22 -19 -27 -21 -20 -8 -85
-54 -85 -60 0 -4 -20 -28 -45 -53 -25 -26 -45 -50 -45 -54 0 -4 -19 -28 -43
-53 -60 -66 -98 -108 -169 -191 -34 -40 -69 -79 -78 -86 -12 -11 -5 -12 44
-10 l59 3 -2 -120 c-1 -66 -3 -151 -5 -190 l-3 -70 -49 0 -49 0 -3 63 c-4 79
-22 82 -22 3 0 -59 -12 -77 -43 -66 -7 3 -25 75 -45 178 -18 94 -39 206 -47
247 -34 177 -86 454 -105 560 -12 63 -28 138 -37 165 -9 28 -16 60 -15 73 1
12 -14 104 -34 205 -35 185 -40 269 -19 321 12 29 13 29 24 8 21 -40 43 -27
41 23 -1 14 26 32 36 24 6 -5 15 -5 19 -1 5 4 5 2 2 -4 -7 -13 108 -134 127
-134 15 0 27 45 19 67 -3 7 -11 13 -19 13 -8 0 -14 3 -14 8 0 4 -32 23 -70 42
-74 36 -88 60 -37 66 15 1 25 -1 22 -6 -5 -7 30 -24 45 -22 3 0 12 -5 20 -12
15 -13 83 -46 94 -46 3 0 6 25 6 55 l0 55 -82 1 c-98 1 -144 12 -88 22 39 7
118 16 168 19 34 1 37 5 24 26 -5 7 -16 10 -28 6 -18 -6 -18 -6 1 9 35 27 -6
31 -96 8 -99 -25 -96 -25 -96 -6 0 8 4 12 8 10 4 -3 9 2 13 10 3 8 12 15 20
15 23 0 77 36 68 45 -4 4 0 6 10 2 9 -3 30 5 49 19 23 17 28 24 15 24 -9 0
-15 4 -12 9 3 4 -7 19 -22 32 -20 19 -23 19 -12 4 11 -16 11 -17 0 -8 -14 13
-22 65 -8 57 3 -2 10 0 13 6 4 6 -15 20 -45 33 -42 18 -50 26 -47 45 2 12 1
22 -2 23 -63 8 -101 28 -101 55 0 22 -4 24 -49 24 -41 0 -51 -4 -56 -20 -7
-22 -5 -22 -62 -11 -29 6 -40 5 -36 -2 4 -6 0 -8 -11 -4 -10 4 -15 3 -11 -3
18 -29 12 -45 -17 -47 -17 -1 -41 -9 -55 -18 -13 -9 -29 -13 -36 -9 -9 5 -9 4
1 -7 6 -7 12 -19 12 -26 0 -13 -6 -21 -60 -81 -29 -32 -39 -48 -22 -38 18 11
34 -12 26 -35 -4 -13 -7 -28 -5 -34 1 -5 -1 -7 -5 -3 -4 5 -16 -6 -27 -24
l-19 -32 -26 31 c-15 16 -34 30 -42 31 -8 1 -35 5 -60 10 -25 6 -66 12 -92 15
l-48 6 0 -148 c0 -170 2 -174 73 -142 23 11 59 25 79 32 20 7 35 16 32 21 -3
4 1 6 8 3 25 -9 51 22 45 53 -5 25 -3 28 24 30 17 1 33 3 37 3 4 1 48 1 98 0
80 -1 92 -3 96 -19 6 -22 6 -22 -116 -21 -80 0 -88 -2 -76 -16 11 -13 10 -15
-6 -9 -18 5 -18 5 -1 -9 16 -14 16 -15 -5 -20 -12 -4 -20 -9 -16 -12 5 -5 25
-1 123 21 11 3 36 8 55 11 30 6 33 4 23 -9 -7 -8 -9 -19 -5 -23 4 -5 3 -6 -3
-3 -15 8 -57 -10 -50 -22 3 -5 -1 -10 -10 -10 -25 0 -75 -32 -75 -48 0 -7 -4
-11 -9 -8 -4 3 -6 -6 -3 -19 2 -14 9 -25 14 -25 5 0 6 4 3 10 -3 5 0 8 7 5 7
-2 42 22 77 55 81 76 126 81 87 11 -8 -14 -12 -32 -9 -40 4 -14 3 -14 -6 -1
-5 8 -12 12 -14 10 -41 -53 -78 -112 -67 -106 8 4 7 1 -3 -8 -13 -10 -17 -21
-12 -37 7 -20 10 -18 36 25 16 25 29 53 29 61 0 8 5 15 11 15 5 0 8 4 5 8 -3
5 2 9 11 9 13 0 15 -10 8 -66 -4 -36 -8 -78 -9 -93 0 -16 -3 -28 -6 -28 -3 0
-5 -17 -6 -37 -1 -53 -13 -214 -18 -238 -2 -11 -7 -31 -10 -45 -3 -14 -13
-101 -21 -195 -19 -219 -41 -430 -60 -575 -8 -63 -19 -176 -25 -250 -14 -174
-26 -203 -64 -164 -10 9 -16 33 -16 60 0 28 -4 43 -10 39 -5 -3 -10 -28 -10
-54 0 -47 -1 -49 -32 -53 -57 -9 -67 -1 -70 55 -2 28 -8 52 -14 54 -7 2 -9 -8
-6 -27 2 -16 1 -41 -2 -55 -6 -22 -12 -25 -51 -25 l-45 0 0 55 c0 42 -3 55
-15 55 -11 0 -15 -13 -15 -54 0 -88 -32 -85 -34 3 -1 65 -20 62 -24 -4 l-3
-55 -49 0 -50 0 0 61 c0 81 -24 77 -28 -4 l-3 -57 -44 0 -45 0 0 61 c0 75 -23
78 -28 3 -4 -54 -12 -64 -59 -64 -32 0 -32 0 -35 57 -2 46 -7 59 -20 61 -16 3
-18 -5 -18 -57 l0 -61 -40 0 -39 0 -3 63 c-2 47 -7 62 -18 62 -11 0 -16 -14
-18 -58 -3 -63 -13 -74 -57 -63 -22 6 -25 12 -25 49 0 40 -13 67 -32 67 -4 0
-8 -27 -8 -60 l0 -60 -40 0 c-43 0 -47 6 -52 80 -2 23 -8 35 -18 35 -11 0 -16
-15 -20 -55 l-5 -55 -37 -3 -38 -2 0 54 c0 38 -4 55 -15 60 -18 6 -29 -30 -23
-74 4 -25 1 -31 -18 -36 -46 -12 -59 -2 -62 46 -2 24 -8 50 -14 58 -19 22 -33
7 -30 -31 5 -59 -5 -77 -43 -77 -37 0 -45 12 -45 69 0 21 -3 40 -6 44 -14 14
-34 -25 -34 -67 0 -39 -3 -45 -22 -48 -17 -2 -24 -11 -26 -31 -3 -23 0 -27 22
-27 24 0 26 -4 26 -40 0 -33 -3 -40 -20 -40 -11 0 -20 -4 -20 -10 0 -6 -67
-10 -180 -10 l-180 0 -2 723 c-3 816 -1 1564 3 1649 4 64 11 65 64 7 17 -18
24 -30 18 -25 -9 5 -13 0 -14 -16 -1 -13 -3 -35 -5 -50 -4 -35 2 -35 32 -2 27
29 29 35 12 53 -11 11 -10 12 1 6 10 -5 8 2 -5 25 -33 58 -129 145 -204 184
-43 23 -78 49 -89 67 -10 16 -21 26 -25 22 -4 -4 -4 0 -1 9 4 10 -2 25 -14 37
-12 12 -19 21 -16 21 3 0 -5 12 -18 26 -24 28 -34 55 -36 96 -1 20 7 31 33 46
73 43 176 140 169 161 -3 11 -2 12 4 4 7 -9 15 -6 35 11 38 36 93 106 115 147
29 55 82 118 113 134 16 8 34 21 42 28 7 7 26 22 41 32 43 28 76 93 86 171 12
94 22 116 81 174 48 48 55 59 51 89 -2 7 2 10 7 7 14 -8 20 23 34 166 9 102 9
140 -2 197 -7 39 -16 69 -19 67 -3 -2 -6 9 -7 26 -2 40 -35 148 -46 148 -5 0
-8 6 -7 13 3 15 -11 76 -22 97 -4 8 -10 28 -14 43 -3 15 -10 25 -15 22 -12 -8
-13 5 -1 24 6 9 0 39 -15 84 -13 39 -25 89 -27 111 -2 41 -2 41 34 42 41 1 80
24 104 61 20 29 14 93 -11 131 -22 34 -11 52 33 53 21 1 52 4 68 8 l30 6 -30
12 c-16 7 -47 15 -69 19 -36 6 -76 34 -76 52 0 16 41 72 64 87 14 9 46 20 73
24 45 6 47 8 25 19 -12 7 -51 15 -87 19 -36 3 -65 9 -65 14 0 4 5 20 11 36 6
15 8 42 4 60 -5 29 -10 33 -36 33 -22 0 -40 11 -68 42 -37 40 -40 41 -69 29
-17 -7 -36 -10 -43 -6 -6 4 -56 9 -111 12 -94 3 -100 2 -105 -17z m-1843
-1719 c0 -9 -79 -21 -93 -14 -4 3 -5 9 -2 14 8 12 95 12 95 0z m757 -817 c-3
-3 -12 -4 -19 -1 -8 3 -5 6 6 6 11 1 17 -2 13 -5z m738 -244 c9 -27 21 -50 26
-50 5 0 9 -5 9 -11 0 -5 -4 -7 -10 -4 -14 9 -12 -8 3 -24 10 -11 9 -12 -3 -5
-15 9 -70 13 -70 5 0 -17 38 -41 64 -41 29 0 31 -2 33 -43 3 -39 0 -44 -32
-61 -35 -19 -35 -19 -58 2 -13 12 -27 22 -31 22 -4 0 -17 9 -29 21 -12 11 -30
18 -39 15 -10 -2 -16 -1 -13 4 4 7 -38 41 -50 40 -3 0 -23 20 -45 45 -42 49
-52 90 -22 92 72 3 198 25 209 37 4 3 14 6 24 6 12 0 22 -15 34 -50z m-149
-285 c3 -8 14 -17 25 -20 23 -7 18 -20 -10 -28 -27 -7 -55 21 -59 56 -3 26 -2
28 18 17 12 -6 24 -18 26 -25z m240 16 c-3 -4 6 -14 19 -21 36 -19 32 -40 -9
-40 -25 0 -38 6 -51 26 -16 24 -16 26 4 31 12 3 21 10 21 15 0 5 5 6 10 3 6
-4 8 -10 6 -14z m-106 -47 c0 -8 -4 -14 -10 -14 -5 0 -10 9 -10 21 0 11 5 17
10 14 6 -3 10 -13 10 -21z m230 7 c0 -6 -4 -13 -10 -16 -5 -3 -10 1 -10 9 0 9
5 16 10 16 6 0 10 -4 10 -9z m160 -41 c0 -5 -2 -10 -4 -10 -3 0 -8 5 -11 10
-3 6 -1 10 4 10 6 0 11 -4 11 -10z m2435 -458 c-3 -3 -11 0 -18 7 -9 10 -8 11
6 5 10 -3 15 -9 12 -12z m-495 -62 c0 -5 -8 -10 -17 -10 -15 0 -16 2 -3 10 19
12 20 12 20 0z m132 -32 c-9 -9 -12 -7 -12 12 0 19 3 21 12 12 9 -9 9 -15 0
-24z m50 -155 c1 -65 2 -131 2 -148 1 -25 -3 -31 -27 -35 -31 -6 -37 -25 -7
-25 10 0 22 -3 25 -7 3 -3 6 -43 6 -89 0 -142 6 -129 -52 -129 l-51 0 6 48 c3
26 8 75 12 110 3 34 9 62 13 62 5 0 4 24 0 53 -7 43 -6 54 8 65 9 6 13 12 9
12 -5 0 -3 6 3 14 6 7 9 21 5 30 -3 9 -2 22 4 29 5 6 13 38 16 70 12 95 26 64
28 -60z m50 -128 c13 -17 9 -57 -4 -53 -16 6 -30 68 -14 65 6 -1 14 -6 18 -12z
m24 -117 c4 -18 8 -42 9 -53 1 -11 6 -46 10 -77 l8 -58 -31 0 c-17 0 -33 4
-36 9 -8 13 -9 188 -1 200 13 21 34 10 41 -21z m-78 -325 l3 -103 -62 0 -61 0
7 88 c9 124 8 121 63 119 l47 -2 3 -102z m116 89 c5 -16 21 -98 33 -165 l5
-28 -58 3 -59 3 -3 80 c-4 111 0 123 43 123 23 0 36 -5 39 -16z m1683 -98 c-3
-3 -12 -4 -19 -1 -8 3 -5 6 6 6 11 1 17 -2 13 -5z m-1802 -244 l0 -115 -64 -3
c-36 -2 -67 1 -70 7 -6 10 6 192 13 217 2 6 29 10 62 9 l59 -1 0 -114z m160
108 c9 -8 42 -210 38 -224 -2 -5 -38 -7 -80 -4 l-78 5 -3 94 c-5 134 -4 136
62 136 30 0 58 -3 61 -7z m-167 -267 c9 -1 12 -30 12 -111 l0 -111 -82 3 -83
3 2 80 c1 44 5 94 8 110 5 30 5 30 67 28 35 -1 69 -2 76 -2z m238 -101 c11
-58 18 -109 14 -113 -4 -4 -51 -6 -106 -5 l-99 3 -3 104 c-2 73 1 107 9 112 7
4 46 6 88 6 l76 -2 21 -105z m3901 44 c-3 -3 -12 -4 -19 -1 -8 3 -5 6 6 6 11
1 17 -2 13 -5z m-4132 -299 l0 -100 -89 -3 c-49 -2 -93 1 -97 5 -10 11 8 195
20 202 5 3 44 4 87 1 l79 -5 0 -100z m260 82 c7 -31 25 -138 28 -162 2 -19 -4
-20 -123 -20 l-125 0 0 100 0 100 29 5 c15 3 64 4 107 2 72 -3 79 -6 84 -25z
m42 -119 c-3 -8 -6 -5 -6 6 -1 11 2 17 5 13 3 -3 4 -12 1 -19z m2920 -90 c-3
-7 -5 -2 -5 12 0 14 2 19 5 13 2 -7 2 -19 0 -25z m-3304 -25 c2 -10 5 -32 6
-49 1 -30 -1 -32 -37 -36 -65 -6 -71 -2 -67 45 2 23 4 45 4 50 1 4 21 7 45 7
34 0 46 -4 49 -17z m85 -35 c3 -47 3 -48 -27 -48 -30 0 -31 2 -31 43 0 50 6
59 35 55 16 -2 21 -12 23 -50z m168 0 c2 -51 -1 -54 -61 -53 -36 0 -40 3 -43
29 -2 15 -1 39 3 53 5 22 10 24 53 21 l47 -3 1 -47z m119 -3 l0 -50 -40 -1
c-54 -1 -61 7 -57 61 l4 46 47 -3 46 -3 0 -50z m125 -146 c0 -40 -22 -55 -34
-23 -8 21 -8 69 1 77 14 14 33 -17 33 -54z m113 52 c4 -1 7 -21 7 -46 l0 -45
-50 0 -50 0 0 38 c0 54 12 61 93 53z m-1163 -52 l0 -39 -50 0 -50 0 0 38 c0
21 2 41 4 43 3 2 25 3 50 1 l46 -4 0 -39z m308 3 l3 -43 -48 3 c-44 3 -48 5
-51 31 -6 49 3 58 50 55 43 -3 43 -3 46 -46z m72 3 c0 -38 -3 -45 -20 -45 -17
0 -20 7 -20 45 0 38 3 45 20 45 17 0 20 -7 20 -45z m175 0 l0 -40 -47 -3 -48
-3 0 39 c0 49 5 54 55 50 40 -3 40 -3 40 -43z m83 -3 c3 -41 2 -42 -27 -42
-29 0 -31 2 -31 39 0 39 11 51 40 48 10 -2 16 -16 18 -45z m167 3 l0 -40 -50
0 c-47 0 -50 1 -53 28 -6 50 3 58 55 55 l48 -3 0 -40z m123 -2 l3 -43 -50 0
-51 0 0 38 c0 49 5 54 55 50 39 -3 40 -4 43 -45z m-1918 -3 l0 -40 -45 0 -45
0 0 40 0 40 45 0 45 0 0 -40z m118 3 c-3 -36 -5 -38 -40 -41 l-38 -3 0 40 0
41 41 0 40 0 -3 -37z m124 -3 c-4 -39 -5 -40 -43 -40 -39 0 -39 0 -39 40 l0
40 43 0 43 0 -4 -40z m128 0 l0 -40 -45 0 -45 0 0 40 0 40 45 0 45 0 0 -40z
m120 0 l0 -40 -40 0 c-22 0 -40 4 -40 9 0 5 -3 23 -6 40 l-6 31 46 0 46 0 0
-40z m120 0 l0 -40 -40 0 -40 0 0 40 0 40 40 0 40 0 0 -40z m128 3 c-3 -37 -4
-38 -45 -41 l-43 -3 0 40 0 41 46 0 45 0 -3 -37z m128 5 c-3 -18 -5 -36 -5
-40 -1 -5 -21 -8 -46 -8 l-45 0 0 40 0 40 50 0 50 0 -4 -32z m184 -8 c0 -29
-4 -40 -15 -40 -11 0 -15 11 -15 40 0 29 4 40 15 40 11 0 15 -11 15 -40z m130
0 l0 -40 -50 0 -50 0 0 40 0 40 50 0 50 0 0 -40z m780 0 c0 -22 -4 -40 -10
-40 -5 0 -10 18 -10 40 0 22 5 40 10 40 6 0 10 -18 10 -40z m-543 -27 c-3 -10
-5 -4 -5 12 0 17 2 24 5 18 2 -7 2 -21 0 -30z m5693 7 c0 -5 -2 -10 -4 -10 -3
0 -8 5 -11 10 -3 6 -1 10 4 10 6 0 11 -4 11 -10z"/>
<path d="M2012 3500 c0 -14 2 -19 5 -12 2 6 2 18 0 25 -3 6 -5 1 -5 -13z"/>
<path d="M6037 2354 c-7 -7 18 -49 50 -83 12 -13 21 -27 18 -31 -2 -4 7 -22
20 -40 l24 -33 7 27 c5 21 1 32 -18 49 -13 12 -27 31 -31 40 -4 11 -12 15 -18
11 -7 -4 -10 -3 -6 2 6 11 -37 67 -46 58z"/>
<path d="M6014 2249 c8 -64 13 -79 27 -79 16 0 16 3 2 48 -9 26 -18 59 -20 75
-3 15 -8 29 -12 31 -3 2 -2 -31 3 -75z"/>
<path d="M6033 2141 c1 -12 7 -17 18 -14 10 3 15 11 12 19 -8 21 -32 17 -30
-5z"/>
<path d="M11672 565 c0 -25 4 -47 9 -51 5 -3 9 17 9 45 0 28 -4 51 -9 51 -5 0
-9 -20 -9 -45z"/>
<path d="M11430 586 c0 -9 5 -16 10 -16 6 0 10 4 10 9 0 6 -4 13 -10 16 -5 3
-10 -1 -10 -9z"/>
</g>
</svg>
